<svg xmlns="http://www.w3.org/2000/svg" xmlns:xlink="http://www.w3.org/1999/xlink" width="745.036" height="622.613" viewBox="0 0 197.124 164.733"><defs><marker id="e" refX="0" refY="0" orient="auto" overflow="visible"><path d="M-1.2 0l-1 1 3.5-1-3.5-1z" fill-rule="evenodd" stroke="#000" stroke-width=".2666"/></marker><marker orient="auto" refY="0" refX="0" id="h" overflow="visible"><path d="M-1.2 0l-1 1 3.5-1-3.5-1z" fill="olive" fill-rule="evenodd" stroke="olive" stroke-width=".2666"/></marker><marker id="i" refX="0" refY="0" orient="auto" overflow="visible"><path d="M-1.2 0l-1 1 3.5-1-3.5-1z" fill="purple" fill-rule="evenodd" stroke="purple" stroke-width=".2666"/></marker><marker orient="auto" refY="0" refX="0" id="k" overflow="visible"><path d="M-1.2 0l-1 1 3.5-1-3.5-1z" fill="#00f" fill-rule="evenodd" stroke="#00f" stroke-width=".2666"/></marker><radialGradient id="a" cx=".65" cy=".7" r=".75"><stop stop-color="#fff" offset="0" stop-opacity=".7"/><stop stop-color="#fff" offset=".1" stop-opacity=".5"/><stop stop-color="#fff" offset=".6" stop-opacity="0"/><stop offset=".6" stop-opacity="0"/><stop offset=".75" stop-opacity=".05"/><stop offset=".85" stop-opacity=".15"/><stop offset="1" stop-opacity=".5"/></radialGradient><radialGradient xlink:href="#a" id="f" gradientUnits="userSpaceOnUse" cx="4.5" cy="6" fx="4.5" fy="6" r="22.5"/></defs><g transform="translate(-22.992 -14.398)"><path fill="#fff" d="M22.992 14.398h197.124v164.733H22.992z"/><path d="M32.992 105.1h19.373" fill="none" stroke="#00f" stroke-width="2"/><path d="M179.818 41.138h19.298v119.344h-96.21v-29.039" fill="none" stroke="#000" stroke-width="2"/><path d="M103.83 32.49V29.79h-1.812v2.698H99.3v1.799h2.718v2.698h1.812v-2.698h2.719v-1.799zM99.3 169.13v-1.798h7.249v1.799z"/><use xlink:href="#b" transform="translate(68.208 -15.717)" width="100%" height="100%" opacity=".2"/><use xlink:href="#b" transform="translate(0 -30.163)" width="100%" height="100%" opacity=".2"/><use xlink:href="#b" transform="translate(0 -15.717)" width="100%" height="100%" opacity=".2"/><use xlink:href="#b" transform="translate(22.736 -30.163)" width="100%" height="100%" opacity=".2"/><use xlink:href="#b" transform="translate(68.208 -30.163)" width="100%" height="100%" opacity=".2"/><use xlink:href="#b" transform="translate(22.736 -15.717)" width="100%" height="100%" opacity=".2"/><use xlink:href="#b" transform="translate(22.736 -.213)" width="100%" height="100%" opacity=".2"/><use xlink:href="#b" transform="translate(68.208 -.213)" width="100%" height="100%" opacity=".2"/><use xlink:href="#b" transform="translate(45.472 -30.163)" width="100%" height="100%" opacity=".2"/><use xlink:href="#b" transform="translate(45.472 -15.717)" width="100%" height="100%" opacity=".2"/><use xlink:href="#b" transform="translate(45.472 -.213)" width="100%" height="100%" opacity=".2"/><path d="M58.484 128.941l-5.292 5.292 102.626-.057 5.292-5.291z" fill="none" stroke="#000" stroke-linecap="round" stroke-linejoin="round"/><use xlink:href="#c" transform="translate(0 61.429)" width="100%" height="100%"/><use xlink:href="#d" transform="translate(-106.33)" width="100%" height="100%"/><path id="b" d="M85.612 111.868l-7.894 7.895" fill="none" stroke="olive" stroke-width="2" stroke-linecap="butt" stroke-linejoin="miter" stroke-miterlimit="4" stroke-dasharray="none" stroke-opacity="1"/><path d="M58.484 70.676l-5.292 5.292h102.626l5.292-5.292zM53.192 75.968h102.626v58.265H53.192z" fill="#ececec" fill-opacity=".392" stroke="#000" stroke-linecap="round" stroke-linejoin="round"/><g id="g"><path d="M77.527 88.802H59.771" fill="none" stroke="#000" stroke-width=".5" stroke-dasharray="1.50000004,1.50000004"/><path d="M67.443 89.302l13.302 4.623" fill="none" stroke="#000" stroke-width="2" marker-end="url(#e)" transform="matrix(-1 0 0 1 144.978 -.53)"/><g transform="rotate(180 38.947 44.401) scale(.31118)"><circle r="14" fill="#33f"/><circle r="14" fill="url(#f)" stroke="#000" stroke-width="2"/><path d="M8 2H-8v-4H8z"/></g></g><use xlink:href="#g" transform="translate(0 15.65)" width="100%" height="100%"/><use xlink:href="#g" transform="translate(0 31.302)" width="100%" height="100%"/><use xlink:href="#g" transform="translate(22.79)" width="100%" height="100%"/><use xlink:href="#g" transform="translate(22.79 15.65)" width="100%" height="100%"/><use xlink:href="#g" transform="translate(22.79 31.302)" width="100%" height="100%"/><use xlink:href="#g" transform="translate(45.58)" width="100%" height="100%"/><use xlink:href="#g" transform="translate(45.58 15.65)" width="100%" height="100%"/><use xlink:href="#g" transform="translate(45.58 31.302)" width="100%" height="100%"/><use xlink:href="#g" transform="translate(68.37)" width="100%" height="100%"/><use xlink:href="#g" transform="translate(68.37 15.65)" width="100%" height="100%"/><use xlink:href="#g" transform="translate(68.37 31.302)" width="100%" height="100%"/><path d="M77.718 119.763l-9.785 9.784" id="j" fill="none" fill-opacity="1" stroke="olive" stroke-width="2" stroke-linecap="butt" stroke-linejoin="miter" stroke-miterlimit="4" stroke-dasharray="none" stroke-opacity="1" marker-end="url(#h)"/><g id="d" fill="#999" stroke="#000" stroke-linecap="round" stroke-linejoin="round"><path d="M159.522 75.968v58.265l5.292-5.292V70.676z"/><path d="M161.11 70.676h3.704l-5.292 5.292h-3.704l5.292-5.292M155.818 75.968v58.265h3.704V75.968h-3.704"/></g><g id="c" fill="#999" stroke="#000" stroke-linecap="round" stroke-linejoin="round"><path d="M100.272 67.501h19.579l-5.292 5.292H94.98l5.292-5.292M114.56 72.793v3.175H94.98v-3.175z" transform="translate(-4.498)"/><path d="M119.85 67.501l-5.29 5.292v3.175l5.29-5.292z" transform="translate(-4.498)"/></g><text style="line-height:1.25" x="67.619" y="170.582" font-weight="400" font-size="10.583" font-family="sans-serif" letter-spacing="0" word-spacing="0" stroke-width=".265"/><g style="line-height:1.25"><path d="M63.02 136.32q1.848 0 2.822.607.973.593.973 1.736 0 1.552-1.721 2.004.988.296 1.51.93.536.622.536 1.483 0 1.241-1.016 1.947-1.016.705-2.794.705h-4.346l.056-.578q.48-.099.804-.423v-7.409q-.254-.254-.86-.451l.056-.55zm-.34 4.897h-.761v3.598q.55.043.96.043 1.03 0 1.51-.424.493-.423.493-1.34 0-1.877-2.201-1.877zm1.948-2.526q0-.734-.466-1.115-.465-.395-1.17-.395-.692 0-1.073.057v3.09h.776q1.933 0 1.933-1.637z" style="-inkscape-font-specification:'Caladea Bold'" font-weight="700" font-size="53.333" font-family="Caladea" aria-label="B" letter-spacing="0" word-spacing="0" fill="olive"/></g><g style="line-height:1.25"><path d="M81.411 148.684q-.296.085-.55.085-.254 0-.508-.042-.212-.974-.607-1.51h-2.3v3.344l1.312-.099q.254-.028.466-.282.226-.254.325-.663h.733v2.921h-.733q-.198-.564-.381-.79-.184-.226-.424-.254l-1.298-.113v3.485q.325.297 1.058.452l-.098.55H74.51l.056-.578q.55-.085.805-.353v-7.55q-.339-.296-.861-.409l.042-.522h6.731z" style="-inkscape-font-specification:'Caladea Bold'" font-weight="700" font-size="53.333" font-family="Caladea" aria-label="F" letter-spacing="0" word-spacing="0" fill="purple"/></g><path d="M77.718 119.763v20.367" fill="none" stroke="purple" stroke-width="2" marker-end="url(#i)"/><g style="line-height:1.25"><path d="M172.11 89.909l.071-.579h4.135l-.085.579q-.607.113-.974.423v7.408q.282.269 1.059.424l-.1.578h-4.106l.057-.578q.635-.099 1.016-.424v-7.408q-.31-.31-1.073-.423z" style="-inkscape-font-specification:'Caladea Bold'" font-weight="700" font-size="53.333" font-family="Caladea" aria-label="I" letter-spacing="0" word-spacing="0" fill="#2828ff"/></g><use xlink:href="#j" transform="translate(0 -30.163)" width="100%" height="100%" opacity=".15"/><use xlink:href="#j" transform="translate(0 -15.717)" width="100%" height="100%" opacity=".15"/><use xlink:href="#j" transform="translate(22.736 -30.163)" width="100%" height="100%" opacity=".15"/><use xlink:href="#j" transform="translate(22.736 -15.717)" width="100%" height="100%" opacity=".15"/><use xlink:href="#j" transform="translate(22.736 -.213)" width="100%" height="100%" opacity=".15"/><use xlink:href="#j" transform="translate(45.472 -30.163)" width="100%" height="100%" opacity=".15"/><use xlink:href="#j" transform="translate(45.472 -15.717)" width="100%" height="100%" opacity=".15"/><use xlink:href="#j" transform="translate(45.472 -.213)" width="100%" height="100%" opacity=".15"/><use xlink:href="#j" transform="translate(68.208 -30.163)" width="100%" height="100%" opacity=".15"/><use xlink:href="#j" transform="translate(68.208 -15.717)" width="100%" height="100%" opacity=".15"/><use xlink:href="#j" transform="translate(68.208 -.213)" width="100%" height="100%" opacity=".15"/><path d="M122.377 41.138h-19.471v29.038" fill="none" stroke="#000" stroke-width="2"/><g stroke-width="2.418"><g fill="none" stroke="#000"><path d="M151.137 54.834v-18.89M150.873 54.637l-21.136-12.572M151.022 54.721l-11.71-16.997M151.22 55.01l14.033-16.195M151.217 55.152l22.378-9.788" stroke-width=".9999880800000001"/></g><path d="M151.022 55.105l8.636-24.301" fill="none" stroke="red" stroke-width=".9999880800000001"/><path d="M181.624 24.898l.104 32.348h-61.182l.078-32.348zm-3.192 2.752H123.83l-.078 26.843h2.598v-.052c0-8.707 11.105-15.78 24.788-15.78s24.788 7.073 24.788 15.78v.052h2.598z" fill="#d2d2d2" stroke="#000" stroke-linecap="round" stroke-linejoin="round" stroke-width=".9999880800000001"/></g><text style="line-height:0%;text-align:start" y="34.823" x="149.025" font-weight="400" font-size="7.444" font-family="roboto,Arial,sans-serif">0</text><path style="line-height:1.25;-inkscape-font-specification:'sans-serif Bold'" d="M145.696 42.894h1.99v4.625q0 .956.31 1.37.315.408 1.023.408.713 0 1.023-.408.315-.414.315-1.37v-4.625h1.99v4.625q0 1.638-.822 2.44-.821.8-2.506.8-1.68 0-2.501-.8-.822-.802-.822-2.44z" font-weight="700" font-family="sans-serif" letter-spacing="0" word-spacing="0"/><path style="line-height:1.25;-inkscape-font-specification:'sans-serif Bold'" d="M153.955 47.711h1.293v1.911h1.908v-1.91h1.293v5.014h-1.293V50.6h-1.908v2.126h-1.293z" font-weight="700" font-size="6.879" font-family="sans-serif" letter-spacing="0" word-spacing="0" baseline-shift="sub" stroke="#000" stroke-width=".265"/><path d="M162.109 105.1h21.49" fill="none" stroke="#00f" stroke-width="2" marker-end="url(#k)"/></g></svg>